{"title":"Mockingjay:Part 1(2014)MPEG-4[DaScubaDude]","uid":14271574,"size":1243746221,"categoryP":"video","categoryS":"movies","magnet":"?xt=urn:btih:e1c1ef737988df02ad6b7ca6bc7cb1fe81cf9c0c&amp;dn=Mockingjay%3APart+1%282014%29MPEG-4%5BDaScubaDude%5D&amp;tr=udp%3A%2F%2Ftracker.leechers-paradise.org%3A6969&amp;tr=udp%3A%2F%2Fzer0day.ch%3A1337&amp;tr=udp%3A%2F%2Fopen.demonii.com%3A1337&amp;tr=udp%3A%2F%2Ftracker.coppersurfer.tk%3A6969&amp;tr=udp%3A%2F%2Fexodus.desync.com%3A6969","seeders":1,"leechers":0,"uploader":"dascuba","files":1,"time":1460316287,"description":"The Hunger Games: Mockingjay - Part 1 (2014)\r\nPG-13 | 2h 3min | Adventure, Sci-Fi, Thriller | 21 November 2014 (USA)\r\nKatniss Everdeen is in District 13 after she shatters the games forever. Under the leadership of President Coin and the advice of her trusted friends, Katniss spreads her wings as she fights to save Peeta and a nation moved by her courage.\r\nDirector: Francis Lawrence\r\nWriters: Peter Craig (screenplay), Danny Strong (screenplay) |\r\nStars: Jennifer Lawrence, Josh Hutcherson, Liam Hemsworth\r\n\r\n\r\nGeneral\r\nComplete name                            : Mockingjay 1THE_HUNGERGAMES_MOCKINGJAY_PT1_Title31.mp4\r\nFormat                                   : MPEG-4\r\nFormat profile                           : Base Media\r\nCodec ID                                 : isom\r\nFile size                                : 1.16 GiB\r\nDuration                                 : 2h 2mn\r\nOverall bit rate                         : 1 351 Kbps\r\nMovie name                               : THE_HUNGERGAMES_MOCKINGJAY_PT1\r\nGenre                                    : Action\r\nWriting application                      : Lavf54.6.100\r\n\r\nVideo\r\nID                                       : 1\r\nFormat                                   : AVC\r\nFormat/Info                              : Advanced Video Codec\r\nFormat profile                           :   \r\nFormat settings, CABAC                   : No\r\nFormat settings, ReFrames                : 6 frames\r\nCodec ID                                 : avc1\r\nCodec ID/Info                            : Advanced Video Coding\r\nDuration                                 : 2h 2mn\r\nBit rate                                 : 1 216 Kbps\r\nWidth                                    : 720 pixels\r\nHeight                                   : 404 pixels\r\nDisplay aspect ratio                     : 16:9\r\nFrame rate mode                          : Constant\r\nFrame rate                               : 29.970 fps\r\nColor space                              : YUV\r\nChroma subsampling                       : 4:2:0\r\nBit depth                                : 8 bits\r\nScan type                                : Progressive\r\nBits/(Pixel*Frame)                       : 0.140\r\nStream size                              : 1.04 GiB (90%)\r\n\r\nAudio\r\nID                                       : 2\r\nFormat                                   : AAC\r\nFormat/Info                              : Advanced Audio Codec\r\nFormat profile                           : LC\r\nCodec ID                                 : 40\r\nDuration                                 : 2h 2mn\r\nBit rate mode                            : Constant\r\nBit rate                                 : 128 Kbps\r\nChannel(s)                               : 2 channels\r\nChannel positions                        : Front: L R\r\nSampling rate                            : 44.1 KHz\r\nCompression mode                         : Lossy\r\nStream size                              : 112 MiB (9%)","torrent":{"xt":"urn:btih:e1c1ef737988df02ad6b7ca6bc7cb1fe81cf9c0c","amp;dn":"Mockingjay%3APart+1%282014%29MPEG-4%5BDaScubaDude%5D","amp;tr":["udp%3A%2F%2Ftracker.leechers-paradise.org%3A6969","udp%3A%2F%2Fzer0day.ch%3A1337","udp%3A%2F%2Fopen.demonii.com%3A1337","udp%3A%2F%2Ftracker.coppersurfer.tk%3A6969","udp%3A%2F%2Fexodus.desync.com%3A6969"],"infoHash":"e1c1ef737988df02ad6b7ca6bc7cb1fe81cf9c0c","infoHashBuffer":{"type":"Buffer","data":[225,193,239,115,121,136,223,2,173,107,124,166,188,124,177,254,129,207,156,12]},"announce":[],"urlList":[]}}